<svg id="Layer_1" data-name="Layer 1" xmlns="http://www.w3.org/2000/svg" viewBox="0 0 512 512"><defs><style>.cls-1{fill:#727272;}</style></defs><title>nfc-handdrawn</title><path class="cls-1" d="M64.12,474.74h0a61.31,61.31,0,0,1-1-12.92V211.2c.06-4-.14-7.15.19-12A47.09,47.09,0,0,1,95,158.64a45.75,45.75,0,0,1,13.34-2.44c4.36-.16,7.75,0,11.67-.08h22.78l56.58.24c13.52.18,26.11.55,37.54,1.09l4.25.22c1.6.15,3.18.28,4.72.49a47.41,47.41,0,0,1,8.72,2.35,40.5,40.5,0,0,1,13.56,8.57,36.59,36.59,0,0,1,11.19,20.75c.91,6.09-.21,10.38-1.42,12.56-.63,1.15-1.32.8-2-.62s-1.39-3.93-2.75-7c-2.51-6.13-8.17-15.22-18.79-20a36.23,36.23,0,0,0-14.86-3.17l-10.75-.15-21.56-.23L163.91,171l-43.48,0-10.78,0a34.35,34.35,0,0,0-8.77,1.35,32.28,32.28,0,0,0-14.77,9.5,31.6,31.6,0,0,0-7.6,15.79c-.61,2.89-.47,5.74-.52,9.62l0,10.86q-.12,21.71-.23,43.32c-.25,28.8-.74,57.42-1.63,85.71-.15,5.07-.31,10.82-.24,15.92q.47,34.52.42,68.85l0,34.15A34.06,34.06,0,0,0,89,491.77a34.56,34.56,0,0,0,13.24,6.55,35.46,35.46,0,0,0,7.39,1l8.49.11,34.22.32,68.49.48,20.13.1a36.44,36.44,0,0,0,17.4-4.37,35.79,35.79,0,0,0,18.51-29.59q.51-40.09,1-80.1c.56-37.47,1.13-74.92,1.69-111.94.4-20.86,1.12-41.3,1.9-61,.51-12.7,2.44-13.43,3.33-3.09,2.37,27.43,3.63,58.88,3.51,96q-.11,60.69-.22,121.45v35.42a49.61,49.61,0,0,1-3.79,20.33,47.93,47.93,0,0,1-12.41,17,46,46,0,0,1-18.54,9.88,43.74,43.74,0,0,1-10.45,1.58c-3.54.17-6.07,0-9.15.08H127.47l-17.78,0a47.09,47.09,0,0,1-45.57-37.24ZM175.58,465a13.1,13.1,0,1,0-13.1-13.1A13.09,13.09,0,0,0,175.58,465ZM183,223.92a27.25,27.25,0,0,1,3.08.22c.94.12,1.74-1.14,2.44-3.51a6.31,6.31,0,0,0-.08-3.33,7.53,7.53,0,0,0-1.55-1.9,22.82,22.82,0,0,0-6.91-3.25c-2.32-.34-4.62-2.27-7-1-.13.07-.27-.08-.4-.24-2.87-3.57-5.87-.58-8.77-2.66-.07,0-.14,0-.21,0-.73.3-1.23,2.83-1.11,5.58.23,5.24,1.23,9,2.6,9.76a2.94,2.94,0,0,0,1.44.24c3.08,0,6.16,0,9.25,0v0C178.19,223.9,180.58,223.88,183,223.92ZM331.4,159.54a34.55,34.55,0,0,1,1.94,4.76,34.66,34.66,0,0,1,1.5,4.91,12.61,12.61,0,0,0,5.35,7.27c1.07.74,3,.39,3.22-.86a25.11,25.11,0,0,0,.66-6,53.73,53.73,0,0,0-1.79-10.72,56.06,56.06,0,0,0-5.92-14.63c-4.59-7.66-9.53-15.91-17.65-20.66a4,4,0,0,1-1.11-1.18,34.11,34.11,0,0,0-14-10.59c-5.41-2.56-11.11-4.19-16.6-6.58a3.31,3.31,0,0,0-.83-.14,4.61,4.61,0,0,0-5.35,4.59,12.68,12.68,0,0,0,6.87,11.66c1.46.64,3,1.14,4.48,1.76a71,71,0,0,1,25.71,16.72l0,0A70.67,70.67,0,0,1,331.4,159.54Zm49.33-17.83a66.55,66.55,0,0,1,3.41,9.31,64.38,64.38,0,0,1,2.56,9.57c1.48,5.88,3.18,10.74,6.25,15,1.14,1.62,3,1.34,3.24-.89a71.28,71.28,0,0,0,.3-10.76l-1.33-9.75c-.61-3.24-1.52-6.43-2.32-9.66-1.18-4.6-3-9-4.57-13.53-2.09-4.28-3.81-8.82-6.47-12.84-8.31-14-18.23-27.76-32.3-36.91a12.54,12.54,0,0,1-2.13-2,77.71,77.71,0,0,0-26.37-17c-9.79-4.25-20.13-6.84-30.29-9.7a10.39,10.39,0,0,0-1.48-.18c-5.32-.47-9.13,1.55-8.53,4.41a13,13,0,0,0,5.09,7.38,23.06,23.06,0,0,0,4.7,2.79,33.63,33.63,0,0,0,5.79,2.48c1.46.47,2.94.88,4.44,1.26l4.4,1.48a123.47,123.47,0,0,1,50.2,31.06l0,0A123.93,123.93,0,0,1,380.73,141.71Zm52-10.83,2.12,7.06L437,145l1.45,7.22c2.06,8.78,3.76,16.17,7,22.72,1.19,2.47,3.09,2.19,3.23-1a136.63,136.63,0,0,0,0-15.57l-2-14.13c-.89-4.7-2.24-9.31-3.4-14-1.7-6.67-4.39-13-6.68-19.57l-4.43-9.39a67.7,67.7,0,0,0-4.95-9.16c-12-20.27-26.86-39.58-46.85-53.08a25.91,25.91,0,0,1-3.15-2.71A124.92,124.92,0,0,0,338.53,13c-7-3.16-14.45-5-21.69-7.36-3.65-1.11-7.4-1.76-11.08-2.73s-7.34-2-11.08-2.56C294,.2,293.26.16,292.56.11c-7.62-.59-12.94,1.35-11.87,4.24s3.86,5.36,8,7.55a43.87,43.87,0,0,0,7.18,2.94,74.34,74.34,0,0,0,8.76,2.95c2.19.59,4.42,1.12,6.66,1.61l6.58,2c28.34,8.28,54.17,24.35,74.9,45.3l0,0A176.69,176.69,0,0,1,430,124C430.93,126.32,432,128.56,432.74,130.88Z"/></svg>