<?xml version="1.0" encoding="UTF-8"?>
<svg width="284px" height="364px" viewBox="0 0 284 364" version="1.1" xmlns="http://www.w3.org/2000/svg" xmlns:xlink="http://www.w3.org/1999/xlink">
    <title>wallet</title>
    <g id="Page-1" stroke="none" stroke-width="1" fill="none" fill-rule="evenodd">
        <g id="Schedule-filter" transform="translate(-24.000000, -87.000000)">
            <g id="wallet" transform="translate(24.000000, 87.000000)">
                <g id="freepik--Coins--inject-2" transform="translate(102.734707, 0.000000)" fill-rule="nonzero">
                    <path d="M49.8852932,98.475855 C47.6752932,103.845855 34.6652932,103.475855 21.0352932,97.855855 C7.40529316,92.235855 -1.86470684,83.325855 0.34529316,77.955855 C0.86529316,76.715855 2.34529316,72.065855 3.82529316,71.425855 C8.90529316,69.275855 18.5752932,74.105855 29.0452932,78.425855 C38.7952932,82.425855 49.9452932,85.035855 51.6752932,90.325855 C52.7152932,93.545855 50.5152932,96.945855 49.8852932,98.475855 Z" id="Path" fill="#407BFF"></path>
                    <path d="M51.6752932,90.325855 C52.5052932,94.535855 50.6752932,96.555855 49.8852932,98.475855 C49.0952932,100.395855 46.7852932,101.655855 43.5552932,102.095855 C43.1514508,102.164503 42.7441882,102.211238 42.3352932,102.235855 C39.8584745,102.381482 37.3731409,102.250675 34.9252932,101.845855 C34.5752932,101.845855 34.2252932,101.735855 33.8652932,101.675855 C30.9918434,101.160064 28.1607097,100.43139 25.3952932,99.495855 L24.3952932,99.155855 C23.2852932,98.765855 22.1452932,98.335855 21.0052932,97.865855 C19.8652932,97.395855 18.7852932,96.865855 17.7152932,96.395855 L16.7952932,95.955855 C14.2744265,94.7092698 11.8450151,93.2857082 9.52529316,91.695855 L8.70529316,91.115855 C6.68034655,89.6845304 4.82505128,88.027178 3.17529316,86.175855 C2.92529316,85.895855 2.69529316,85.625855 2.47529316,85.345855 C0.32529316,82.625855 -0.52470684,80.025855 0.32529316,77.955855 C0.88529316,76.625855 2.08529316,72.075855 3.80529316,71.415855 C5.92078642,70.8198774 8.1597999,70.8198774 10.2752932,71.415855 L11.2752932,71.655855 C16.2752932,72.935855 22.5752932,75.785855 29.0052932,78.435855 C36.5852932,81.565855 45.5552932,84.815855 49.9552932,88.565855 C50.2171054,88.7862022 50.4674347,89.0198429 50.7052932,89.265855 C51.0563594,89.5927725 51.3807262,89.9472352 51.6752932,90.325855 L51.6752932,90.325855 Z" id="Path" fill="#000000" opacity="0.2"></path>
                    <g id="Group" opacity="0.2" transform="translate(2.495293, 70.315855)" fill="#000000">
                        <path d="M9.28,0.48 L8.82,1.32 L0.7,15.85 C0.45,15.57 0.22,15.3 -2.84217094e-14,15.02 L7.8,1.08 L8.41,1.42108547e-14 L9.28,0.48 Z" id="Path"></path>
                    </g>
                    <g id="Group" opacity="0.2" transform="translate(8.725293, 76.265855)" fill="#000000">
                        <polygon id="Path" points="9.19 0.46 0.82 15.46 0 14.88 8.32 2.84217094e-14"></polygon>
                    </g>
                    <g id="Group" opacity="0.2" transform="translate(24.395293, 84.795855)" fill="#000000">
                        <polygon id="Path" points="8.91 0.53 1 14.7 0 14.36 8 0"></polygon>
                    </g>
                    <g id="Group" opacity="0.2" transform="translate(16.815293, 80.795855)" fill="#000000">
                        <polygon id="Path" points="9.33 0.53 0.92 15.6 0 15.16 8.46 0"></polygon>
                    </g>
                    <g id="Group" opacity="0.2" transform="translate(33.865293, 87.565855)" fill="#000000">
                        <path d="M8.77,0.5 L1.06,14.28 C0.71,14.28 0.36,14.17 -2.84217094e-14,14.11 L7.89,0 L8.77,0.5 Z" id="Path"></path>
                    </g>
                    <path d="M51.6152932,93.795855 C49.4052932,99.165855 36.5552932,98.955855 22.9152932,93.325855 C9.27529316,87.695855 0.0152931598,78.795855 2.23529316,73.425855 C4.45529316,68.055855 17.2952932,68.275855 30.9352932,73.895855 C44.5752932,79.515855 53.8252932,88.395855 51.6152932,93.795855 Z" id="Path" fill="#407BFF"></path>
                    <path d="M46.9752932,91.845855 C45.4152932,95.635855 35.3952932,95.105855 24.6052932,90.655855 C13.8152932,86.205855 6.33529316,79.515855 7.89529316,75.725855 C9.45529316,71.935855 19.4752932,72.465855 30.2752932,76.915855 C41.0752932,81.365855 48.5452932,88.055855 46.9752932,91.845855 Z" id="Path" fill="#FFFFFF" opacity="0.2"></path>
                    <path d="M118.805293,49.935855 C122.365293,54.525855 115.585293,65.635855 103.915293,74.665855 C92.2452932,83.695855 79.9152932,87.295855 76.3652932,82.665855 C75.5452932,81.605855 72.2252932,78.055855 72.4252932,76.395855 C73.0952932,70.925855 82.0852932,64.945855 91.0452932,58.005855 C99.3852932,51.545855 107.175293,43.165855 112.625293,44.295855 C115.935293,45.025855 117.795293,48.635855 118.805293,49.935855 Z" id="Path" fill="#407BFF"></path>
                    <path d="M112.625293,44.335855 C116.695293,45.715855 117.535293,48.335855 118.805293,49.935855 C120.075293,51.535855 120.025293,54.205855 118.805293,57.235855 C118.665293,57.605855 118.495293,57.975855 118.315293,58.355855 C117.219637,60.5789677 115.877903,62.6720714 114.315293,64.595855 C114.105293,64.875855 113.875293,65.145855 113.645293,65.425855 C111.764637,67.6687703 109.718937,69.7679533 107.525293,71.705855 L106.755293,72.375855 C105.865293,73.145855 104.925293,73.915855 103.955293,74.665855 C102.985293,75.415855 102.015293,76.125855 101.035293,76.795855 C100.765293,76.995855 100.475293,77.185855 100.205293,77.375855 C97.8688546,78.9431903 95.4225207,80.3401405 92.8852932,81.555855 C92.5752932,81.715855 92.2752932,81.845855 91.9852932,81.985855 C89.7308502,83.0287008 87.3658713,83.8136726 84.9352932,84.325855 C84.5752932,84.405855 84.2252932,84.465855 83.8752932,84.515855 C80.4452932,85.025855 77.7652932,84.515855 76.3952932,82.705855 C75.5152932,81.565855 72.1652932,78.255855 72.4552932,76.445855 C72.9783681,74.3061772 74.090384,72.355819 75.6652932,70.815855 C75.8852932,70.565855 76.1252932,70.315855 76.3752932,70.055855 C79.9852932,66.315855 85.5752932,62.305855 91.0752932,58.055855 C97.5652932,53.055855 104.845293,46.865855 110.275293,44.925855 C110.6031,44.8054715 110.936873,44.7020019 111.275293,44.615855 C111.717858,44.489706 112.169064,44.3961226 112.625293,44.335855 L112.625293,44.335855 Z" id="Path" fill="#000000" opacity="0.2"></path>
                    <g id="Group" opacity="0.2" transform="translate(74.995293, 69.235855)" fill="#000000">
                        <path d="M0.85,0 L1.35,0.82 L9.91,15.09 C9.55,15.17 9.2,15.23 8.85,15.28 L0.64,1.56 L-2.84217094e-14,0.56 L0.85,0 Z" id="Path"></path>
                    </g>
                    <g id="Group" opacity="0.2" transform="translate(83.175293, 66.855855)" fill="#000000">
                        <path d="M0.86,0 L9.68,14.7 C9.37,14.86 9.07,14.99 8.78,15.13 L-2.84217094e-14,0.51 L0.86,0 Z" id="Path"></path>
                    </g>
                    <g id="Group" opacity="0.2" transform="translate(98.285293, 57.795855)" fill="#000000">
                        <polygon id="Path" points="0.86 0 9.21 13.92 8.44 14.59 5.68434189e-14 0.51"></polygon>
                    </g>
                    <g id="Group" opacity="0.2" transform="translate(91.255293, 62.005855)" fill="#000000">
                        <path d="M0.87,-1.42108547e-14 L9.75,14.79 C9.48,14.99 9.19,15.18 8.92,15.37 L2.84217094e-14,0.51 L0.87,-1.42108547e-14 Z" id="Path"></path>
                    </g>
                    <g id="Group" opacity="0.2" transform="translate(105.305293, 51.045855)" fill="#000000">
                        <path d="M0.86,0 L8.98,13.55 C8.77,13.83 8.54,14.1 8.31,14.38 L0,0.52 L0.86,0 Z" id="Path"></path>
                    </g>
                    <ellipse id="Oval" fill="#407BFF" transform="translate(94.451958, 62.432319) rotate(-37.760000) translate(-94.451958, -62.432319) " cx="94.4519582" cy="62.4323194" rx="26.71" ry="10.51"></ellipse>
                    <ellipse id="Oval" fill="#FFFFFF" opacity="0.2" transform="translate(94.891614, 62.084085) rotate(-37.760000) translate(-94.891614, -62.084085) " cx="94.8916138" cy="62.0840849" rx="21.14" ry="7.43"></ellipse>
                    <path d="M70.5352932,28.435855 C69.3952932,35.015855 54.6352932,37.795855 37.9152932,34.795855 C21.1952932,31.795855 8.58529316,24.065855 9.75529316,17.485855 C10.0252932,15.955855 10.4952932,10.385855 12.0652932,9.27585496 C17.2552932,5.61585496 29.3152932,8.67585496 42.1552932,10.955855 C54.1552932,13.085855 67.2852932,13.255855 70.5352932,18.785855 C72.5052932,22.185855 70.8652932,26.555855 70.5352932,28.435855 Z" id="Path" fill="#407BFF"></path>
                    <path d="M70.5352932,18.795855 C72.5352932,23.335855 70.9452932,26.045855 70.5352932,28.405855 C70.1252932,30.765855 67.8352932,32.735855 64.3152932,34.035855 C63.8852932,34.205855 63.4352932,34.345855 62.9752932,34.485855 C60.221982,35.2597099 57.3913542,35.7258915 54.5352932,35.875855 C54.1252932,35.875855 53.7252932,35.875855 53.3052932,35.945855 C49.940766,36.069577 46.5716955,35.9459108 43.2252932,35.575855 L42.0552932,35.425855 C40.7052932,35.255855 39.3152932,35.055855 37.9252932,34.805855 C36.5352932,34.555855 35.1852932,34.275855 33.8552932,33.965855 C33.4752932,33.885855 33.0952932,33.785855 32.7152932,33.695855 C29.5734835,32.9200377 26.4920693,31.9174084 23.4952932,30.695855 C23.1252932,30.555855 22.7752932,30.395855 22.4252932,30.255855 C19.7951005,29.1362949 17.2993705,27.7240606 14.9852932,26.045855 C14.6352932,25.795855 14.3152932,25.545855 13.9852932,25.285855 C10.8852932,22.755855 9.29529316,20.035855 9.74529316,17.505855 C10.0452932,15.865855 10.2852932,10.505855 12.0452932,9.29585496 C13.8052932,8.08585496 16.3252932,7.70585496 19.3252932,7.69585496 L20.5252932,7.69585496 C26.5252932,7.89585496 34.2552932,9.56585496 42.1452932,10.965855 C51.4452932,12.625855 62.3352932,14.075855 68.1952932,17.215855 C68.5390012,17.3980323 68.8728035,17.5983137 69.1952932,17.815855 C69.6668013,18.107124 70.1148314,18.4347878 70.5352932,18.795855 L70.5352932,18.795855 Z" id="Path" fill="#000000" opacity="0.2"></path>
                    <g id="Group" opacity="0.2" transform="translate(13.975293, 6.345855)" fill="#000000">
                        <path d="M6.88,0.33 L6.56,1.38 L1,19.72 C0.65,19.47 0.33,19.22 0,18.96 L5.34,1.37 L5.76,-7.10542736e-15 L6.88,0.33 Z" id="Path"></path>
                    </g>
                    <g id="Group" opacity="0.2" transform="translate(22.415293, 11.445855)" fill="#000000">
                        <path d="M6.8,0.35 L1.07,19.24 C0.7,19.1 0.35,18.94 -2.84217094e-14,18.8 L5.7,0 L6.8,0.35 Z" id="Path"></path>
                    </g>
                    <g id="Group" opacity="0.2" transform="translate(42.045293, 17.375855)" fill="#000000">
                        <polygon id="Path" points="6.6 0.34 1.17 18.23 2.84217094e-14 18.08 5.49 1.42108547e-14"></polygon>
                    </g>
                    <g id="Group" opacity="0.2" transform="translate(32.705293, 14.615855)" fill="#000000">
                        <path d="M6.91,0.36 L1.14,19.36 C0.76,19.28 0.38,19.18 0,19.09 L5.8,1.42108547e-14 L6.91,0.36 Z" id="Path"></path>
                    </g>
                    <g id="Group" opacity="0.2" transform="translate(53.295293, 18.165855)" fill="#000000">
                        <path d="M6.52,0.33 L1.23,17.74 C0.82,17.74 0.42,17.74 0,17.81 L5.41,0 L6.52,0.33 Z" id="Path"></path>
                    </g>
                    <ellipse id="Oval" fill="#407BFF" transform="translate(41.029828, 17.301854) rotate(-79.910000) translate(-41.029828, -17.301854) " cx="41.0298281" cy="17.3018536" rx="12.1" ry="30.76"></ellipse>
                    <ellipse id="Oval" fill="#FFFFFF" opacity="0.2" transform="translate(41.658500, 17.420869) rotate(-79.910000) translate(-41.658500, -17.420869) " cx="41.6584996" cy="17.4208688" rx="8.55" ry="24.34"></ellipse>
                </g>
                <g id="freepik--Wallet--inject-2" transform="translate(0.000000, 98.360896)">
                    <path d="M260.57,98.0649589 L157.66,104.064959 C154.024747,104.279021 150.457787,105.146203 147.13,106.624959 L35.35,156.624959 C31.3083678,158.401737 29.0578377,162.761097 29.95,167.084959 L48.42,254.434959 C49.0527803,257.28544 50.9677101,259.683326 53.607623,260.930929 C56.2475359,262.178532 59.3159197,262.135724 61.92,260.814959 L172.25,205.734959 L274.13,202.324959 C276.666123,202.257237 279.050588,201.101925 280.675506,199.153554 C282.300424,197.205184 283.008785,194.65202 282.62,192.144959 L268.99,108.504959 C268.28,104.184959 265,97.9349589 260.57,98.0649589 Z" id="Path" fill="#407BFF" fill-rule="nonzero"></path>
                    <path d="M260.57,98.0649589 L157.66,104.064959 C154.024747,104.279021 150.457787,105.146203 147.13,106.624959 L35.35,156.624959 C31.3083678,158.401737 29.0578377,162.761097 29.95,167.084959 L48.42,254.434959 C49.0527803,257.28544 50.9677101,259.683326 53.607623,260.930929 C56.2475359,262.178532 59.3159197,262.135724 61.92,260.814959 L172.25,205.734959 L274.13,202.324959 C276.666123,202.257237 279.050588,201.101925 280.675506,199.153554 C282.300424,197.205184 283.008785,194.65202 282.62,192.144959 L268.99,108.504959 C268.28,104.184959 265,97.9349589 260.57,98.0649589 Z" id="Path" fill="#000000" fill-rule="nonzero" opacity="0.1"></path>
                    <rect id="Rectangle" fill="#407BFF" fill-rule="nonzero" transform="translate(75.463683, 118.648838) rotate(-42.670000) translate(-75.463683, -118.648838) " x="38.7386829" y="47.1538378" width="73.45" height="142.99"></rect>
                    <polygon id="Path" fill="#FAFAFA" fill-rule="nonzero" opacity="0.5" points="150.91 146.334959 96.9 196.114959 -7.10542736e-15 90.9849589 35.44 58.3149589 54.01 41.1949589 57.1 44.5549589"></polygon>
                    <rect id="Rectangle" stroke="#407BFF" transform="translate(75.855568, 118.751255) rotate(-42.670000) translate(-75.855568, -118.751255) " x="43.4505682" y="51.8762548" width="64.81" height="133.75"></rect>
                    <ellipse id="Oval" fill="#407BFF" fill-rule="nonzero" transform="translate(75.137222, 117.982808) rotate(-42.670000) translate(-75.137222, -117.982808) " cx="75.1372223" cy="117.982808" rx="13.46" ry="16.88"></ellipse>
                    <polygon id="Path" fill="#000000" fill-rule="nonzero" opacity="0.1" points="96.33 153.444959 77.14 160.074959 35.44 58.3149589 54.01 41.1949589 57.1 44.5549589"></polygon>
                    <rect id="Rectangle" fill="#407BFF" fill-rule="nonzero" transform="translate(89.914009, 79.731667) rotate(-19.930000) translate(-89.914009, -79.731667) " x="53.1890089" y="8.23666664" width="73.45" height="142.99"></rect>
                    <rect id="Rectangle" fill="#FAFAFA" fill-rule="nonzero" opacity="0.5" transform="translate(89.914009, 79.731667) rotate(-19.930000) translate(-89.914009, -79.731667) " x="53.1890089" y="8.23666664" width="73.45" height="142.99"></rect>
                    <rect id="Rectangle" stroke="#407BFF" transform="translate(90.230062, 79.977615) rotate(-19.930000) translate(-90.230062, -79.977615) " x="57.825062" y="13.1026151" width="64.81" height="133.75"></rect>
                    <ellipse id="Oval" fill="#407BFF" fill-rule="nonzero" transform="translate(89.877156, 78.983215) rotate(-19.930000) translate(-89.877156, -78.983215) " cx="89.8771555" cy="78.9832154" rx="13.46" ry="16.88"></ellipse>
                    <path d="M261.24,101.614959 L159.74,107.334959 C156.141911,107.532178 152.611885,108.396882 149.33,109.884959 L39.19,159.604959 C35.1934529,161.411235 32.9894891,165.752628 33.89,170.044959 L52.36,257.434959 C52.9629225,260.268085 54.8448731,262.661798 57.4556786,263.916316 C60.0664841,265.170833 63.1113004,265.14448 65.7,263.844959 L174.4,209.074959 L274.88,205.894959 C277.396493,205.81538 279.756755,204.655653 281.357441,202.712236 C282.958128,200.768818 283.644098,198.230069 283.24,195.744959 L269.57,112.114959 C268.86,107.754959 265.62,101.494959 261.24,101.614959 Z" id="Path" fill="#407BFF" fill-rule="nonzero"></path>
                    <line x1="163.87" y1="122.634959" x2="250.96" y2="117.274959" id="Path" stroke="#000000" stroke-width="2" opacity="0.2" stroke-linecap="round" stroke-linejoin="round"></line>
                    <line x1="153.44" y1="124.884959" x2="169.35" y2="197.964959" id="Path" stroke="#000000" stroke-width="2" opacity="0.2" stroke-linecap="round" stroke-linejoin="round"></line>
                    <path d="M47.36,190.864959 L58.58,247.074959 C58.58,247.074959 67.18,224.774959 47.36,190.864959 Z" id="Path" fill="#FAFAFA" fill-rule="nonzero" opacity="0.2"></path>
                    <path d="M48.83,191.524959 C49.22,192.524959 148.49,149.924959 148.49,149.924959 C149.038495,169.62028 138.458996,187.948798 121.13,197.324959 C91.25,214.074959 48.83,191.524959 48.83,191.524959 Z" id="Path" fill="#FAFAFA" fill-rule="nonzero" opacity="0.2"></path>
                    <circle id="Oval" fill="#407BFF" fill-rule="nonzero" cx="114.77" cy="188.884959" r="4.3"></circle>
                    <path d="M148.54,149.924959 C148.54,149.924959 160.85,168.454959 157.87,200.014959" id="Path" fill="#000000" fill-rule="nonzero" opacity="0.2"></path>
                    <g id="Group" opacity="0.2" transform="translate(42.610000, 122.634959)" stroke="#FAFAFA" stroke-linecap="round" stroke-linejoin="round">
                        <line x1="1.42108547e-14" y1="46.15" x2="2.29" y2="45.14" id="Path"></line>
                        <line x1="7.04" y1="43.04" x2="99.74" y2="2.06" id="Path" stroke-dasharray="5.197529792785645,5.197529792785645"></line>
                        <line x1="102.12" y1="1.01" x2="104.4" y2="0" id="Path"></line>
                    </g>
                    <line x1="166.79" y1="139.064959" x2="253.88" y2="133.694959" id="Path" stroke="#000000" stroke-width="2" opacity="0.2" stroke-linecap="round" stroke-linejoin="round"></line>
                    <line x1="170.71" y1="159.554959" x2="257.8" y2="154.184959" id="Path" stroke="#000000" stroke-width="2" opacity="0.2" stroke-linecap="round" stroke-linejoin="round"></line>
                </g>
                <g id="freepik--Card--inject-2" transform="translate(157.853590, 103.768209)" fill-rule="nonzero">
                    <path d="M86.5864097,27.9576456 L65.4664097,101.417646 C64.0298432,106.451028 59.6733604,110.102553 54.4664097,110.637646 C52.8463619,110.792576 51.2116279,110.643347 49.6464097,110.197646 L9.27640966,98.5876456 C2.48159238,96.6270707 -1.44544004,89.5378379 0.496409659,82.7376456 L21.6264097,9.25764559 C23.5911517,2.47224412 30.6746982,-1.44517174 37.4664097,0.49764559 L77.8664097,12.0976456 C84.6457909,14.0795273 88.54504,21.1715103 86.5864097,27.9576456 L86.5864097,27.9576456 Z" id="Path" fill="#407BFF"></path>
                    <path d="M86.5864097,27.9576456 L65.4664097,101.417646 C64.0298432,106.451028 59.6733604,110.102553 54.4664097,110.637646 C52.8463619,110.792576 51.2116279,110.643347 49.6464097,110.197646 L9.27640966,98.5876456 C2.48159238,96.6270707 -1.44544004,89.5378379 0.496409659,82.7376456 L21.6264097,9.25764559 C23.5911517,2.47224412 30.6746982,-1.44517174 37.4664097,0.49764559 L77.8664097,12.0976456 C84.6457909,14.0795273 88.54504,21.1715103 86.5864097,27.9576456 L86.5864097,27.9576456 Z" id="Path" fill="#000000" opacity="0.2"></path>
                    <path d="M83.0764097,28.8276456 L61.9564097,102.297646 C60.8742942,106.087657 58.1026704,109.165599 54.4464097,110.637646 C52.8263619,110.792576 51.1916279,110.643347 49.6264097,110.197646 L9.27640966,98.5876456 C2.48159238,96.6270707 -1.44544004,89.5378379 0.496409659,82.7376456 L21.6264097,9.25764559 C22.7098345,5.47295688 25.4820728,2.4017154 29.1364097,0.93764559 C30.7564206,0.772715353 32.3930382,0.922116136 33.9564097,1.37764559 L74.2764097,13.0276456 C81.0577801,14.9754341 84.9906538,22.03673 83.0764097,28.8276456 Z" id="Path" fill="#407BFF"></path>
                    <path d="M83.0764097,28.8276456 L61.9564097,102.297646 C60.8742942,106.087657 58.1026704,109.165599 54.4464097,110.637646 C52.8263619,110.792576 51.1916279,110.643347 49.6264097,110.197646 L9.27640966,98.5876456 C2.48159238,96.6270707 -1.44544004,89.5378379 0.496409659,82.7376456 L21.6264097,9.25764559 C22.7098345,5.47295688 25.4820728,2.4017154 29.1364097,0.93764559 C30.7564206,0.772715353 32.3930382,0.922116136 33.9564097,1.37764559 L74.2764097,13.0276456 C81.0577801,14.9754341 84.9906538,22.03673 83.0764097,28.8276456 Z" id="Path" fill="#FAFAFA" opacity="0.5"></path>
                    <rect id="Rectangle" fill="#FAFAFA" transform="translate(16.359275, 62.061048) rotate(15.740000) translate(-16.359275, -62.061048) " x="14.114275" y="33.3910476" width="4.49" height="57.34"></rect>
                    <polygon id="Path" fill="#FAFAFA" points="16.9464097 92.0176456 12.6264097 90.7676456 28.1764097 35.5976456 32.4864097 36.8376456"></polygon>
                    <polygon id="Path" fill="#FAFAFA" points="23.2264097 93.8176456 18.9064097 92.5776456 34.4564097 37.4076456 38.7764097 38.6476456"></polygon>
                    <rect id="Rectangle" fill="#000000" opacity="0.5" transform="translate(53.985792, 72.863684) rotate(15.740000) translate(-53.985792, -72.863684) " x="51.7407924" y="44.1936835" width="4.49" height="57.34"></rect>
                    <path d="M63.3764097,30.2776456 L61.2764097,37.7676456 L58.7164097,37.0476456 C56.1344525,36.3151626 54.6317793,33.6318176 55.3564097,31.0476456 L56.7564097,26.0476456 L61.9264097,27.5276456 C63.0855573,27.8874138 63.7343812,29.1179419 63.3764097,30.2776456 Z" id="Path" fill="#FAFAFA"></path>
                    <path d="M62.1464097,26.6076456 L56.9764097,25.1276456 L58.5264097,19.6476456 C58.8758904,18.4060427 59.7046035,17.3542927 60.8300058,16.7240673 C61.9554082,16.093842 63.2851804,15.9368404 64.5264097,16.2876456 L67.1864097,17.0376456 L64.8664097,25.1076456 C64.7109039,25.6713209 64.3344963,26.148384 63.8224628,26.4307554 C63.3104294,26.7131268 62.7061083,26.7769067 62.1464097,26.6076456 L62.1464097,26.6076456 Z" id="Path" fill="#FAFAFA"></path>
                    <path d="M67.0464097,29.0276456 L72.2464097,30.5176456 L70.8664097,35.4076456 C70.5216392,36.6522728 69.6937359,37.7074868 68.5668973,38.3385164 C67.4400588,38.969546 66.1077563,39.1240473 64.8664097,38.7676456 L62.1664097,38.0076456 L64.3164097,30.5276456 C64.4765625,29.9647821 64.8553268,29.4894291 65.3682113,29.2076245 C65.8810957,28.9258199 66.4854319,28.8610077 67.0464097,29.0276456 L67.0464097,29.0276456 Z" id="Path" fill="#FAFAFA"></path>
                    <path d="M74.0864097,24.0276456 L72.5164097,29.5876456 L67.3164097,28.0976456 C66.1574695,27.7589793 65.4880411,26.5495454 65.8164097,25.3876456 L68.1364097,17.3176456 L70.7264097,18.0476456 C71.9650093,18.395019 73.0148688,19.2202287 73.6450013,20.3417145 C74.2751338,21.4632003 74.4339147,22.7890829 74.0864097,24.0276456 L74.0864097,24.0276456 Z" id="Path" fill="#FAFAFA"></path>
                </g>
            </g>
        </g>
    </g>
</svg>