<?xml version="1.0" encoding="UTF-8"?>
<svg width="21px" height="21px" viewBox="0 0 21 21" version="1.1" xmlns="http://www.w3.org/2000/svg" xmlns:xlink="http://www.w3.org/1999/xlink">
    <title>icon-orders</title>
    <g id="icon-orders" stroke="none" stroke-width="1" fill="none" fill-rule="evenodd">
        <path d="M16.6122732,17.8750004 C17.407752,17.8750004 18.0814431,17.2884348 18.190877,16.5004786 L19.1805158,9.37502063 L19.7265179,9.37502063 C19.9465529,9.37502063 20.1249544,9.19661911 20.1249544,8.97658408 L20.1249544,8.71095972 C20.1249544,8.49092469 19.9465529,8.31252317 19.7265179,8.31252317 L17.1740337,8.31252317 L12.5510932,3.17590822 C12.3548905,2.95781868 12.018969,2.94014714 11.8008471,3.13644718 C11.5827251,3.33271479 11.565086,3.6686038 11.761386,3.88669334 L15.7446491,8.31252317 L5.38030534,8.31252317 L9.36360082,3.88666092 C9.55990086,3.6686038 9.54222931,3.33264994 9.32413978,3.13641475 C9.10601781,2.94011471 8.77009637,2.95775383 8.57389361,3.17587579 L3.9509207,8.31252317 L1.39843655,8.31252317 C1.17840152,8.31252317 1,8.49092469 1,8.71095972 L1,8.97658408 C1,9.19661911 1.17840152,9.37502063 1.39843655,9.37502063 L1.94443859,9.37502063 L2.93407742,16.5004786 C3.04351129,17.2884348 3.71720238,17.8750004 4.51268122,17.8750004 L16.6122732,17.8750004 Z M16.6122732,16.8125029 L4.51268122,16.8125029 C4.24896991,16.8125029 4.02277417,16.6155544 3.98649076,16.3543398 L3.01714988,9.37502063 L18.1078369,9.37502063 L17.1384636,16.3543398 C17.1021802,16.6155544 16.8759845,16.8125029 16.6122732,16.8125029 Z M10.5624772,15.4843811 C10.8558897,15.4843811 11.0937259,15.2465448 11.0937259,14.9531323 L11.0937259,11.2343912 C11.0937259,10.9409787 10.8558897,10.7031425 10.5624772,10.7031425 C10.2690972,10.7031425 10.0312285,10.9409787 10.0312285,11.2343912 L10.0312285,14.9531323 C10.0312285,15.2465448 10.2690972,15.4843811 10.5624772,15.4843811 Z M14.2812183,15.4843811 C14.5746308,15.4843811 14.8124671,15.2465448 14.8124671,14.9531323 L14.8124671,11.2343912 C14.8124671,10.9409787 14.5746308,10.7031425 14.2812183,10.7031425 C13.9878059,10.7031425 13.7499696,10.9409787 13.7499696,11.2343912 L13.7499696,14.9531323 C13.7499696,15.2465448 13.9878059,15.4843811 14.2812183,15.4843811 Z M6.84373607,15.4843811 C7.13711611,15.4843811 7.3749848,15.2465448 7.3749848,14.9531323 L7.3749848,11.2343912 C7.3749848,10.9409787 7.13711611,10.7031425 6.84373607,10.7031425 C6.55035603,10.7031425 6.31248733,10.9409787 6.31248733,11.2343912 L6.31248733,14.9531323 C6.31248733,15.2465448 6.55035603,15.4843811 6.84373607,15.4843811 Z" id="shopping-basket" fill="#007AFF" fill-rule="nonzero"></path>
    </g>
</svg>