<?xml version="1.0" encoding="UTF-8"?>
<svg width="21px" height="21px" viewBox="0 0 21 21" version="1.1" xmlns="http://www.w3.org/2000/svg" xmlns:xlink="http://www.w3.org/1999/xlink">
    <title>icon-wallet</title>
    <g id="icon-wallet" stroke="none" stroke-width="1" fill="none" fill-rule="evenodd">
        <path d="M16.8749645,17.8749645 C18.0486792,17.8749645 18.9999595,16.9236843 18.9999595,15.7499696 L18.9999595,6.71874113 C18.9999595,5.83853617 18.2864182,5.12499493 17.4062133,5.12499493 L16.8749645,5.12499493 L16.8749645,4.5937462 C16.8749645,3.71354124 16.1614233,3 15.2812183,3 L5.1874924,3 C3.42708247,3 2,4.42708247 2,6.1874924 L2,14.6874721 C2,16.4478821 3.42708247,17.8749645 5.1874924,17.8749645 L16.8749645,17.8749645 Z M16.8749645,16.8124671 L5.1874924,16.8124671 C4.01575562,16.8124671 3.06249747,15.8592089 3.06249747,14.6874721 L3.06249747,6.1874924 C3.06249747,5.01575562 4.01575562,4.06249747 5.1874924,4.06249747 L15.2812183,4.06249747 C15.5740796,4.06249747 15.8124671,4.30088496 15.8124671,4.5937462 L15.8124671,5.12499493 L5.71874113,5.12499493 C5.4252314,5.12499493 5.1874924,5.36273393 5.1874924,5.65624367 C5.1874924,5.9497534 5.4252314,6.1874924 5.71874113,6.1874924 L17.4062133,6.1874924 C17.6990745,6.1874924 17.937462,6.42587989 17.937462,6.71874113 L17.937462,15.7499696 C17.937462,16.3356597 17.4606546,16.8124671 16.8749645,16.8124671 Z M14.7499696,12.5624772 C15.3366648,12.5624772 15.8124671,12.086675 15.8124671,11.4999797 C15.8124671,10.9132845 15.3366648,10.4374823 14.7499696,10.4374823 C14.1632744,10.4374823 13.6874721,10.9132845 13.6874721,11.4999797 C13.6874721,12.086675 14.1632744,12.5624772 14.7499696,12.5624772 Z" id="wallet" fill="#007AFF" fill-rule="nonzero"></path>
    </g>
</svg>