<?xml version="1.0" encoding="UTF-8"?>
<svg width="21px" height="21px" viewBox="0 0 21 21" version="1.1" xmlns="http://www.w3.org/2000/svg" xmlns:xlink="http://www.w3.org/1999/xlink">
    <title>icon-balance</title>
    <g id="icon-balance" stroke="none" stroke-width="1" fill="none" fill-rule="evenodd">
        <path d="M4.49071195,17.8749645 C8.58032851,17.8749645 12.6696208,15.8047676 16.7592374,15.8047676 C18.9144523,15.8047676 19.6923893,16.3144214 20.1791511,16.3144214 C20.7505742,16.3144214 21.2499493,15.8721464 21.2499493,15.2582468 L21.2499493,4.72422379 C21.2499493,4.30454897 21.0098758,3.90744184 20.6244091,3.74573911 C19.3364617,3.20554112 18.0475091,3 16.7592374,3 C12.6696208,2.99967575 8.58032851,5.06987269 4.49071195,5.06987269 C2.33549706,5.06987269 1.55723582,4.56054315 1.07079823,4.56054315 C0.499375106,4.56054315 0,5.0028181 0,5.61671778 L0,16.1507407 C0,16.5700913 0.240073585,16.9675227 0.625540196,17.1289012 C1.91348764,17.6694234 3.20244026,17.8749645 4.49071195,17.8749645 Z M4.2423376,16.797195 C4.20151472,15.0699557 2.79868603,13.6757844 1.06979306,13.6717962 L1.08341149,9.13393847 C2.76515874,9.12265462 4.12878578,7.79518129 4.23040526,6.1283819 C6.57222516,6.17520338 8.77987103,5.60277509 10.8842762,5.07019694 C13.3675333,4.44134941 15.0841372,4.03360693 17.0009646,4.07776957 C17.0069308,5.83519641 18.4290199,7.26328406 20.1797996,7.26759656 L20.1662136,11.8054542 C18.5060613,11.8167381 17.1583224,13.110976 17.0258669,14.7472311 C14.6773999,14.6997612 12.471051,15.2725137 10.3653165,15.8054161 C7.87278587,16.436274 6.16380176,16.8416819 4.2423376,16.797195 Z M20.1831394,6.20078659 C19.0462593,6.198452 18.1232211,5.29298808 18.0720871,4.1627551 C18.8201608,4.26336941 19.5257255,4.44332732 20.1874519,4.72422379 L20.1831394,6.20078659 Z M1.08675125,8.06612333 L1.09404685,5.63166563 C1.76540335,5.84482659 2.45637689,5.98130278 3.17487913,6.05967364 C3.10947821,7.16896017 2.20433854,8.05318581 1.08675125,8.06612333 Z M10.6249747,14.1562234 C12.3847361,14.1562234 13.8124671,12.4917586 13.8124671,10.4374823 C13.8124671,8.38353018 12.3853846,6.71874113 10.6249747,6.71874113 C8.86456474,6.71874113 7.43748227,8.38353018 7.43748227,10.4374823 C7.43748227,12.4910777 8.86456474,14.1562234 10.6249747,14.1562234 Z M10.6249747,13.0937259 C9.45323788,13.0937259 8.49997973,11.9020803 8.49997973,10.4374823 C8.49997973,8.97288424 9.45323788,7.7812386 10.6249747,7.7812386 C11.7967115,7.7812386 12.7499696,8.97288424 12.7499696,10.4374823 C12.7499696,11.9020803 11.7967115,13.0937259 10.6249747,13.0937259 Z M20.1559025,15.2432989 C19.4865239,15.0307864 18.7979174,14.8943427 18.0817173,14.8159718 C18.1776624,13.7368728 19.0674976,12.8855584 20.1631981,12.8729127 L20.1559025,15.2432989 Z M3.17121513,16.7115285 C2.42580026,16.61059 1.72257013,16.4309563 1.06249747,16.1507407 L1.06680997,14.7382819 C2.18177084,14.740584 3.08820751,15.6118397 3.17121513,16.7115285 Z" id="money-bill-wave" fill="#007AFF" fill-rule="nonzero"></path>
    </g>
</svg>