<?xml version="1.0" encoding="UTF-8"?>
<svg width="21px" height="21px" viewBox="0 0 21 21" version="1.1" xmlns="http://www.w3.org/2000/svg" xmlns:xlink="http://www.w3.org/1999/xlink">
    <title>icon-sub</title>
    <g id="icon-sub" stroke="none" stroke-width="1" fill="none" fill-rule="evenodd">
        <path d="M18.5312082,16.7499696 C19.4114132,16.7499696 20.1249544,16.0364284 20.1249544,15.1562234 L20.1249544,11.4374823 L19.0624569,11.4374823 C18.4756644,11.4374823 17.9999595,10.9617773 17.9999595,10.3749848 C17.9999595,9.7881923 18.4756644,9.31248733 19.0624569,9.31248733 L20.1249544,9.31248733 L20.1249544,5.5937462 C20.1249544,4.71354124 19.4114132,4 18.5312082,4 L2.5937462,4 C1.71354124,4 1,4.71354124 1,5.5937462 L1,9.31248733 L2.06249747,9.31248733 C2.64928997,9.31248733 3.12499493,9.7881923 3.12499493,10.3749848 C3.12499493,10.9617773 2.64928997,11.4374823 2.06249747,11.4374823 L1,11.4374823 L1,15.1562234 C1,16.0364284 1.71354124,16.7499696 2.5937462,16.7499696 L18.5312082,16.7499696 Z M18.5312082,15.6874721 L2.5937462,15.6874721 C2.30078769,15.6874721 2.06249747,15.4491819 2.06249747,15.1562234 L2.06249747,12.4999797 C3.23423425,12.4999797 4.1874924,11.5467216 4.1874924,10.3749848 C4.1874924,9.20324802 3.23423425,8.24998987 2.06249747,8.24998987 L2.06249747,5.5937462 C2.06249747,5.30078769 2.30078769,5.06249747 2.5937462,5.06249747 L18.5312082,5.06249747 C18.8241667,5.06249747 19.0624569,5.30078769 19.0624569,5.5937462 L19.0624569,8.24998987 C17.8907202,8.24998987 16.937462,9.20324802 16.937462,10.3749848 C16.937462,11.5467216 17.8907202,12.4999797 19.0624569,12.4999797 L19.0624569,15.1562234 C19.0624569,15.4491819 18.8241667,15.6874721 18.5312082,15.6874721 Z M15.0780914,13.5624772 C15.5181939,13.5624772 15.8749645,13.2057066 15.8749645,12.7656041 L15.8749645,7.9843655 C15.8749645,7.54426302 15.5181939,7.1874924 15.0780914,7.1874924 L6.04686297,7.1874924 C5.60676049,7.1874924 5.24998987,7.54426302 5.24998987,7.9843655 L5.24998987,12.7656041 C5.24998987,13.2057066 5.60676049,13.5624772 6.04686297,13.5624772 L15.0780914,13.5624772 Z M14.8124671,12.4999797 L6.31248733,12.4999797 L6.31248733,8.24998987 L14.8124671,8.24998987 L14.8124671,12.4999797 Z" id="ticket-alt" fill="#007AFF" fill-rule="nonzero"></path>
    </g>
</svg>